<svg width="80" height="79" viewBox="0 0 80 79" fill="none" xmlns="http://www.w3.org/2000/svg">
<path fill-rule="evenodd" clip-rule="evenodd" d="M38.0417 49.6817V29.319L49.0436 39.4984L38.0417 49.6817ZM41.3278 21.6894C39.3773 19.8799 36.5299 19.4099 34.078 20.487C31.6889 21.5288 30.2084 23.7574 30.2084 26.2993V52.7016C30.2084 55.2435 31.6889 57.4721 34.078 58.5139C34.9515 58.8977 35.8797 59.0818 36.7923 59.0818C38.449 59.0818 40.0745 58.4747 41.3239 57.3154L55.5884 44.1162C56.8848 42.9177 57.625 41.2375 57.625 39.4985C57.625 37.7634 56.8848 36.0792 55.5884 34.8847L41.3278 21.6894ZM40 70.8334C22.7236 70.8334 8.66671 56.7765 8.66671 39.5C8.66671 22.2236 22.7236 8.16671 40 8.16671C57.2765 8.16671 71.3334 22.2236 71.3334 39.5C71.3334 56.7765 57.2765 70.8334 40 70.8334ZM40 0.333374C18.4035 0.333374 0.833374 17.9035 0.833374 39.5C0.833374 61.0965 18.4035 78.6667 40 78.6667C61.5965 78.6667 79.1667 61.0965 79.1667 39.5C79.1667 17.9035 61.5965 0.333374 40 0.333374Z" fill="white"/>
</svg>
